<svg version="1.2" xmlns="http://www.w3.org/2000/svg" viewBox="0 0 1568 1161" width="1568" height="1161">
	<title>logo (32)-svg</title>
	<style>
		.s0 { fill: #469bd6 } 
		.s1 { fill: #28377a } 
	</style>
	<path id="Layer" class="s0" d="m581.1 938.5c-95.1 0-186.2-37.7-253.4-104.9-67.2-67.1-104.9-158.2-104.9-253.2 0-95 37.7-186.1 104.9-253.3 67.2-67.1 158.3-104.9 253.4-104.9v108.3c-66.3 0-129.9 26.3-176.8 73.2-46.9 46.9-73.2 110.4-73.2 176.7 0 66.3 26.3 129.8 73.2 176.7 46.9 46.8 110.5 73.2 176.8 73.2zm406.3-108.3c66.3 0 129.9-26.3 176.7-73.2 46.9-46.9 73.2-110.4 73.2-176.7 0-66.3-26.3-129.8-73.2-176.7-46.8-46.8-110.4-73.2-176.7-73.2v-108.2c95 0 186.1 37.7 253.3 104.9 67.2 67.1 105 158.2 105 253.2 0 95-37.8 186.1-105 253.3-67.2 67.1-158.3 104.9-253.3 104.9z"/>
	<path id="Layer" class="s1" d="m581.1 1160.6c-154 0-301.6-61.2-410.5-170-108.8-108.8-170-256.3-170-410.2 0-153.9 61.2-301.5 170-410.3 108.9-108.8 256.5-169.9 410.5-169.9v143.1c-116 0-227.2 46.1-309.2 128-82 82-128.1 193.2-128.1 309.1 0 115.9 46.1 227.1 128.1 309 82 82 193.2 128.1 309.2 128.1zm406.3-143.1c115.9 0 227.2-46.1 309.2-128.1 82-81.9 128-193.1 128-309 0-115.9-46-227.1-128-309.1-82-82-193.3-128-309.2-128v-143.1c153.9 0 301.6 61.1 410.4 169.9 108.9 108.8 170 256.4 170 410.3 0 153.9-61.1 301.4-170 410.2-108.8 108.8-256.5 170-410.4 170zm-58.2-858c0 38.4-15.2 75.3-42.4 102.5-27.2 27.2-64.1 42.5-102.6 42.5-38.4 0-75.3-15.2-102.6-42.4-27.2-27.2-42.5-64.1-42.5-102.5 0-38.5 15.3-75.3 42.5-102.5 27.2-27.2 64.1-42.5 102.6-42.5 38.4 0 75.3 15.3 102.5 42.5 27.2 27.2 42.5 64 42.5 102.4z"/>
</svg>